<?xml version="1.0" encoding="utf-8"?>
<!-- Generator: Adobe Illustrator 25.1.0, SVG Export Plug-In . SVG Version: 6.00 Build 0)  -->
<svg version="1.1" id="Layer_1" xmlns="http://www.w3.org/2000/svg" xmlns:xlink="http://www.w3.org/1999/xlink" x="0px" y="0px"
	 viewBox="0 0 1032.8 56.4" style="enable-background:new 0 0 1032.8 56.4;" xml:space="preserve">
<style type="text/css">
	.st0{fill:#322F7F;}
	.st1{fill:#DE1D1B;}
	.st2{fill:#FFFFFF;}
	.st3{fill:#FCE600;}
	.st4{display:none;}
	.st5{display:inline;fill:#322F7F;}
	.st6{display:inline;fill:#FCE600;}
	.st7{display:inline;fill:#DE1D1B;}
</style>
<g>
	<g>
		<g>
			<g>
				<rect x="15.1" y="6.6" class="st0" width="2.6" height="2.5"/>
				<rect x="10" y="6.6" class="st0" width="2.5" height="2.5"/>
				<rect x="20.3" y="6.6" class="st0" width="2.6" height="2.5"/>
				<rect x="17.7" y="9.2" class="st0" width="2.6" height="2.6"/>
				<rect x="25.5" y="6.6" class="st0" width="2.6" height="2.5"/>
				<rect x="22.9" y="9.2" class="st0" width="2.6" height="2.6"/>
				<rect x="28.1" y="9.2" class="st0" width="2.6" height="2.6"/>
				<polygon class="st0" points="33.2,11.7 35.8,11.7 35.8,14.3 38.3,14.3 36.9,11.7 35.5,9.2 35.3,9.2 33.8,6.6 30.6,6.6 30.6,9.2 
					33.2,9.2 				"/>
				<rect x="25.5" y="11.7" class="st0" width="2.6" height="2.6"/>
				<rect x="28.1" y="14.3" class="st0" width="2.6" height="2.6"/>
				<rect x="25.5" y="16.9" class="st0" width="2.6" height="2.6"/>
				<path class="st0" d="M33.2,16.9h2.6v-2.6h-2.6V16.9z M33.2,11.7h-2.6v2.6h2.6V11.7z"/>
				<rect x="30.6" y="16.9" class="st0" width="2.6" height="2.6"/>
				<rect x="20.3" y="16.9" class="st0" width="2.6" height="2.6"/>
				<rect x="28.1" y="19.5" class="st0" width="2.6" height="2.6"/>
				<rect x="33.2" y="19.5" class="st0" width="2.6" height="2.6"/>
				<rect x="22.9" y="19.5" class="st0" width="2.6" height="2.6"/>
				<rect x="30.6" y="22" class="st0" width="2.6" height="2.6"/>
				<polygon class="st0" points="35.8,24.6 33.2,24.6 33.2,27.2 30.6,27.2 30.6,29.8 33.2,29.8 33.2,32.4 35.8,32.4 35.8,29.8 
					33.2,29.8 33.2,27.2 35.8,27.2 35.8,24.6 38.3,24.6 38.3,22 35.8,22 				"/>
				<rect x="28.1" y="24.6" class="st0" width="2.6" height="2.6"/>
				<rect x="25.5" y="27.2" class="st0" width="2.6" height="2.6"/>
				<rect x="28.1" y="29.8" class="st0" width="2.6" height="2.5"/>
				<rect x="30.6" y="32.4" class="st0" width="2.6" height="2.6"/>
				<polygon class="st0" points="48.4,32.4 46.9,29.8 45.5,27.2 44.1,24.6 42.6,22 41.2,19.5 39.8,16.9 38.3,14.3 38.3,16.9 
					35.8,16.9 35.8,19.5 38.3,19.5 38.3,22 40.9,22 40.9,24.6 38.3,24.6 38.3,27.2 35.8,27.2 35.8,29.8 38.3,29.8 38.3,32.4 
					35.8,32.4 35.8,35 38.3,35 38.3,37.5 35.8,37.5 35.8,40.1 38.3,40.1 38.3,42.7 35.8,42.7 35.8,45.3 33.2,45.3 33.2,47.8 
					35.8,47.8 35.8,50.4 33.2,50.4 33.2,53 35.1,56.4 37.4,53 39.1,50.4 40.9,47.8 42.7,45.3 44.5,42.7 46.3,40.1 48.1,37.5 
					49.8,35 				"/>
				<rect x="28.1" y="35" class="st0" width="2.6" height="2.6"/>
				<rect x="33.2" y="35" class="st0" width="2.6" height="2.6"/>
				<rect x="28.1" y="40.1" class="st0" width="2.6" height="2.6"/>
				<rect x="30.6" y="37.5" class="st0" width="2.6" height="2.5"/>
				<rect x="33.2" y="40.1" class="st0" width="2.6" height="2.6"/>
				<path class="st1" d="M63.5,8.1l1.4-2H73c0.7,0,0.9,0.9,0,1.4c-5.5,2.7-8.9,6.7-10.9,9.5L50.7,33.6l-2.3-4.1l12.3-17.7v-1
					L59.8,11l-12,17.4l-2.3-4.1l8.6-12.5v-1L53.2,11l-8.3,12.1L42.6,19l6.7-9.8c1.1-1.5,2.9-2.6,4.7-2.6c2.2,0,2.9,1.5,2.9,1.5
					c1.1-1,2.4-1.5,3.7-1.5C62.9,6.6,63.5,8.1,63.5,8.1"/>
				<rect x="38.3" y="22" class="st2" width="2.6" height="2.6"/>
				<rect x="30.6" y="29.8" class="st2" width="2.6" height="2.5"/>
				<rect x="35.8" y="29.8" class="st2" width="2.6" height="2.5"/>
				<rect x="33.2" y="32.4" class="st2" width="2.6" height="2.6"/>
				<rect x="35.8" y="35" class="st2" width="2.6" height="2.6"/>
				<rect x="35.8" y="40.1" class="st2" width="2.6" height="2.6"/>
				<rect x="28.1" y="11.7" class="st2" width="2.6" height="2.6"/>
				<rect x="30.6" y="9.2" class="st2" width="2.6" height="2.6"/>
				<rect x="33.2" y="11.7" class="st2" width="2.6" height="2.6"/>
				<rect x="25.5" y="9.2" class="st3" width="2.6" height="2.6"/>
				<rect x="28.1" y="16.9" class="st3" width="2.6" height="2.6"/>
				<rect x="30.6" y="14.3" class="st3" width="2.6" height="2.6"/>
				<rect x="33.2" y="16.9" class="st3" width="2.6" height="2.6"/>
				<rect x="35.8" y="19.5" class="st3" width="2.6" height="2.6"/>
				<rect x="33.2" y="22" class="st3" width="2.6" height="2.6"/>
				<rect x="30.6" y="24.6" class="st3" width="2.6" height="2.6"/>
				<rect x="35.8" y="24.6" class="st3" width="2.6" height="2.6"/>
				<rect x="28.1" y="27.2" class="st3" width="2.6" height="2.6"/>
				<rect x="33.2" y="27.2" class="st3" width="2.6" height="2.6"/>
				<rect x="30.6" y="35" class="st3" width="2.6" height="2.6"/>
				<rect x="33.2" y="37.5" class="st3" width="2.6" height="2.5"/>
			</g>
			<g>
				<path class="st0" d="M113.5,35.6c0,5.8-4.9,11-13.5,11c-4.3,0-9.3-1.6-13-4.9l5.2-6.2c2.4,2,5.5,3.3,8.1,3.3
					c2.8,0,3.9-0.9,3.9-2.4c0-1.6-1.7-2.2-4.7-3.3l-4.3-1.8c-3.7-1.5-6.9-4.6-6.9-9.6c0-5.9,5.3-10.7,12.8-10.7
					c3.9,0,8.3,1.5,11.4,4.6l-4.6,5.7c-2.3-1.6-4.3-2.5-6.9-2.5c-2.2,0-3.6,0.8-3.6,2.3c0,1.6,2,2.2,5.1,3.4l4.2,1.6
					C111.1,27.9,113.5,30.8,113.5,35.6z M119,46h9.1V11.6H119V46z M153.4,26.2l-4.2-1.6c-3.1-1.2-5.1-1.8-5.1-3.4
					c0-1.5,1.4-2.3,3.6-2.3c2.5,0,4.6,0.8,6.9,2.5l4.6-5.7c-3.2-3.1-7.5-4.6-11.4-4.6c-7.5,0-12.8,4.8-12.8,10.7
					c0,5,3.2,8.1,6.9,9.6l4.3,1.8c2.9,1.2,4.7,1.7,4.7,3.3c0,1.5-1.2,2.4-3.9,2.4c-2.5,0-5.6-1.4-8.1-3.3l-5.2,6.2
					c3.7,3.3,8.7,4.9,13,4.9c8.6,0,13.5-5.2,13.5-11C160.1,30.8,157.7,27.9,153.4,26.2z M162,19.2h9.1V46h9.1V19.2h9.1v-7.6H162
					V19.2z M203.6,32.2h11.2v-7.6h-11.2v-5.4h13.1v-7.6h-22.2V46h22.8v-7.6h-13.7L203.6,32.2L203.6,32.2z M242.6,25.7
					c-0.6,1.9-1.2,4-1.8,6h-0.2c-0.6-2-1.2-4.1-1.8-6l-5.2-14.1h-9.7V46h8.2V35.8c0-3.5-0.7-8.8-1.2-12.3h0.2l2.8,8.3l4.2,11.4h4.9
					l4.2-11.4l2.9-8.3h0.2c-0.4,3.4-1.2,8.8-1.2,12.3V46h8.3V11.6h-9.7L242.6,25.7z M292.7,11.6L303.2,46h-9.6l-1.7-7.3h-9.6
					l-1.7,7.3h-9.3l10.5-34.4C281.8,11.6,292.7,11.6,292.7,11.6z M290.2,31.6l-0.6-2.4c-0.8-3.3-1.7-7.5-2.5-10.9h-0.2
					c-0.7,3.5-1.6,7.6-2.4,10.9l-0.6,2.4H290.2z M333.9,11.6h-10l-8.7,12.8H315V11.6h-9V46h9.1v-8.6l3.3-4.7L326,46h10l-12.3-20.4
					L333.9,11.6z M362.4,11.6h-27.3v7.6h9.1V46h9.1V19.2h9.1L362.4,11.6L362.4,11.6z M382.5,11.6L393,46h-9.6l-1.7-7.3h-9.6
					l-1.7,7.3H361l10.5-34.4C371.5,11.6,382.5,11.6,382.5,11.6z M380,31.6l-0.6-2.4c-0.8-3.3-1.7-7.5-2.5-10.9h-0.2
					c-0.7,3.5-1.6,7.6-2.4,10.9l-0.6,2.4H380z M425.1,25.7c-0.6,1.9-1.2,4-1.8,6h-0.2c-0.6-2-1.2-4.1-1.8-6l-5.2-14.1h-9.7V46h8.2
					V35.8c0-3.5-0.7-8.8-1.2-12.3h0.2l2.8,8.3l4.2,11.4h4.9l4.2-11.4l2.9-8.3h0.2c-0.4,3.4-1.2,8.8-1.2,12.3V46h8.3V11.6h-9.7
					L425.1,25.7z M464.6,11.6L475.1,46h-9.6l-1.7-7.3h-9.6l-1.7,7.3h-9.3l10.5-34.4C453.7,11.6,464.6,11.6,464.6,11.6z M462.1,31.6
					l-0.6-2.4c-0.8-3.3-1.7-7.5-2.5-10.9h-0.2c-0.7,3.5-1.6,7.6-2.4,10.9l-0.6,2.4H462.1z M527.8,11.6L538.2,46h-9.6l-1.7-7.3h-9.6
					l-1.7,7.3h-7.7h-1.6h-8.4l-7.6-13.2l-3.3,4.7V46h-9.1V11.6h9.1v12.8h0.2l8.7-12.8h10l-10.3,14l11.2,18.7l10-32.7
					C516.8,11.6,527.8,11.6,527.8,11.6z M525.2,31.6l-0.6-2.4c-0.8-3.3-1.7-7.5-2.5-10.9h-0.2c-0.7,3.5-1.6,7.6-2.4,10.9l-0.6,2.4
					H525.2z M560.3,21.5c0,4.2,0.7,9.4,1.2,13.1h-0.2l-3.3-7.7l-7.6-15.4H541V46h8.7V36c0-4.2-0.7-9.2-1.2-13.1h0.2l3.3,7.7
					l7.6,15.4h9.3V11.6h-8.7v9.9H560.3z M593.7,11.6L604.2,46h-9.6l-1.7-7.3h-9.6l-1.7,7.3h-9.3l10.5-34.4
					C582.8,11.6,593.7,11.6,593.7,11.6z M591.2,31.6l-0.6-2.4c-0.8-3.3-1.7-7.5-2.5-10.9h-0.2c-0.7,3.5-1.6,7.6-2.4,10.9l-0.6,2.4
					H591.2z M626.2,21.5c0,4.2,0.7,9.4,1.2,13.1h-0.2l-3.3-7.7l-7.6-15.4H607V46h8.7V36c0-4.2-0.7-9.2-1.2-13.1h0.2l3.3,7.7
					l7.6,15.4h9.3V11.6h-8.7L626.2,21.5L626.2,21.5z M672.5,24.4h-10.3V11.6h-9.1V46h9.1V32.3h10.3V46h9.1V11.6h-9.1V24.4z
					 M706.4,11.6L716.9,46h-9.6l-1.7-7.3H696l-1.7,7.3H685l10.5-34.4C695.5,11.6,706.4,11.6,706.4,11.6z M703.9,31.6l-0.6-2.4
					c-0.8-3.3-1.7-7.5-2.5-10.9h-0.2c-0.7,3.5-1.6,7.6-2.4,10.9l-0.6,2.4H703.9z M719.7,46h9.1V11.6h-9.1V46z M767,11.6l-1.9,15
					c-0.4,3.5-0.8,7.2-1.2,10.8h-0.2c-0.6-3.7-1.3-7.4-1.9-10.8l-3.3-15h-7.6l-3.3,15c-0.6,3.5-1.3,7.2-1.9,10.8h-0.2
					c-0.4-3.6-0.8-7.2-1.2-10.8l-1.9-15h-9.3l6,34.4h11.3l2.5-13.7c0.5-2.6,0.9-5.5,1.3-8.1h0.2c0.3,2.5,0.7,5.4,1.3,8.1l2.6,13.7
					H770l5.7-34.4C775.7,11.6,767,11.6,767,11.6z M797.2,11.6L807.7,46H798l-1.7-7.3h-9.6L785,46h-9.3l10.5-34.4
					C786.2,11.6,797.2,11.6,797.2,11.6z M794.7,31.6l-0.6-2.4c-0.8-3.3-1.7-7.5-2.5-10.9h-0.2c-0.7,3.5-1.6,7.6-2.4,10.9l-0.6,2.4
					H794.7z M829.7,21.5c0,4.2,0.7,9.4,1.2,13.1h-0.2l-3.3-7.7l-7.6-15.4h-9.3V46h8.7V36c0-4.2-0.7-9.2-1.2-13.1h0.2l3.3,7.7
					l7.6,15.4h9.3V11.6h-8.7V21.5z"/>
				<g>
					<path class="st3" d="M863.4,7c-4.4,7.3-7,14.9-7,24.3c0,9.3,2.5,16.9,7,24.3l5.7-2.3c-3.8-6.9-5.4-14.6-5.4-21.9
						s1.6-15,5.4-21.9L863.4,7z"/>
					<path class="st3" d="M886.3,18.9c-6.5,0-12.7,5.3-12.7,13.9c0,8.8,5.9,13.9,13.7,13.9c3,0,6.8-1.1,9.6-3.1l-3-5.4
						c-1.9,1.1-3.6,1.6-5.4,1.6c-3,0-5.3-1.1-6.1-4.2h15.1c0.2-0.6,0.4-2.2,0.4-3.8C897.8,24.6,894.1,18.9,886.3,18.9z M882.2,29.6
						c0.5-2.6,2.2-3.8,4.2-3.8c2.8,0,3.6,1.8,3.6,3.8H882.2z"/>
					<path class="st1" d="M909.7,11.6L899.2,46h9.3l1.7-7.3h9.6l1.7,7.3h9.6l-10.5-34.4C920.6,11.6,909.7,11.6,909.7,11.6z
						 M911.9,31.6l0.6-2.4c0.8-3.3,1.7-7.4,2.4-10.9h0.2c0.8,3.4,1.7,7.6,2.5,10.9l0.6,2.4H911.9z"/>
					<path class="st1" d="M952.7,25.7c-0.6,1.9-1.2,4-1.8,6h-0.2c-0.6-2-1.2-4.1-1.8-6l-5.2-14.1H934V46h8.2V35.8
						c0-3.5-0.7-8.8-1.2-12.3h0.2l2.8,8.3l4.2,11.4h4.9l4.2-11.4l2.9-8.3h0.2c-0.4,3.4-1.2,8.8-1.2,12.3V46h8.3V11.6h-9.7
						L952.7,25.7z"/>
					<polygon class="st1" points="994.4,24.4 984.1,24.4 984.1,11.6 975,11.6 975,46 984.1,46 984.1,32.3 994.4,32.3 994.4,46 
						1003.5,46 1003.5,11.6 994.4,11.6 					"/>
					<path class="st3" d="M1015.8,7l-5.7,2.3c3.8,6.9,5.4,14.6,5.4,21.9s-1.6,15-5.4,21.9l5.7,2.3c4.4-7.3,7-14.9,7-24.3
						C1022.8,21.9,1020.2,14.3,1015.8,7z"/>
				</g>
			</g>
			<g class="st4">
				<path class="st5" d="M115,46.1c-2.3,0-4.3-0.4-6.2-1.2c-1.9-0.8-3.5-1.9-4.8-3.4s-2.2-3.2-2.6-5.3l8.2-1.6
					c0.4,1.3,1.1,2.3,2.1,3c0.9,0.7,2.1,1,3.4,1c1.4,0,2.5-0.3,3.3-1c0.9-0.7,1.3-1.5,1.3-2.6c0-0.9-0.4-1.7-1.2-2.3
					c-0.8-0.6-2.2-1.1-4.2-1.6l-1.4-0.3c-3.7-0.8-6.3-2.1-8.1-4c-1.7-1.9-2.6-4.1-2.6-6.7c0-1.7,0.3-3.2,1-4.6s1.6-2.6,2.7-3.7
					c1.2-1,2.5-1.8,4.1-2.4s3.3-0.9,5.1-0.9c2.2,0,4.1,0.4,5.9,1.2s3.2,1.9,4.4,3.3c1.2,1.4,2,3.2,2.4,5.1l-8,1.6
					c-0.4-1.3-1.1-2.2-1.9-2.8c-0.8-0.6-1.8-0.9-2.9-0.9c-1.2,0-2.2,0.3-2.9,0.9c-0.8,0.6-1.2,1.4-1.2,2.4c0,0.7,0.2,1.3,0.7,1.8
					s1.1,0.8,1.9,1.1c0.8,0.3,1.7,0.6,2.7,0.8l1.3,0.3c3.7,0.8,6.4,2.2,8.2,4c1.8,1.8,2.7,4.1,2.7,6.8c0,1.8-0.3,3.4-1,4.8
					c-0.7,1.5-1.6,2.7-2.8,3.8s-2.6,1.9-4.3,2.5C118.8,45.8,117,46.1,115,46.1z"/>
				<path class="st5" d="M132.9,45.4v-36h8.8v36H132.9z"/>
				<path class="st5" d="M159.4,46.1c-2.3,0-4.3-0.4-6.2-1.2s-3.5-1.9-4.8-3.4s-2.2-3.2-2.6-5.3l8.2-1.6c0.4,1.3,1.1,2.3,2.1,3
					c0.9,0.7,2.1,1,3.4,1c1.4,0,2.5-0.3,3.3-1c0.9-0.7,1.3-1.5,1.3-2.6c0-0.9-0.4-1.7-1.2-2.3s-2.2-1.1-4.2-1.6l-1.4-0.3
					c-3.7-0.8-6.3-2.1-8.1-4c-1.7-1.9-2.6-4.1-2.6-6.7c0-1.7,0.3-3.2,1-4.6s1.6-2.6,2.7-3.7c1.2-1,2.5-1.8,4.1-2.4s3.3-0.9,5.1-0.9
					c2.2,0,4.1,0.4,5.9,1.2c1.8,0.8,3.2,1.9,4.4,3.3s2,3.2,2.4,5.1l-8,1.6c-0.4-1.3-1.1-2.2-1.9-2.8c-0.8-0.6-1.8-0.9-2.9-0.9
					c-1.2,0-2.2,0.3-2.9,0.9c-0.8,0.6-1.2,1.4-1.2,2.4c0,0.7,0.2,1.3,0.7,1.8s1.1,0.8,1.9,1.1c0.8,0.3,1.7,0.6,2.7,0.8l1.3,0.3
					c3.7,0.8,6.4,2.2,8.2,4s2.7,4.1,2.7,6.8c0,1.8-0.3,3.4-1,4.8c-0.7,1.5-1.6,2.7-2.8,3.8s-2.6,1.9-4.3,2.5
					C163.2,45.8,161.4,46.1,159.4,46.1z"/>
				<path class="st5" d="M185.4,45.4V17.2h-9.8V9.4h28.5v7.8h-9.8v28.2H185.4z"/>
				<path class="st5" d="M209.1,45.4v-36h23.3v7.4h-14.7v6.6h12.9v7.4h-12.9v7.4h15.2v7.4h-23.8V45.4z"/>
				<path class="st5" d="M238.4,45.4v-36h8.6l10.3,19.2l10.3-19.2h8.4v36h-8.5V24.3l-7.3,13.6h-6.1l-7.3-13.6v21.1H238.4z"/>
				<path class="st6" d="M305.2,46.1c-2,0-3.9-0.3-5.6-1s-3.2-1.7-4.4-3c-1.3-1.3-2.2-2.8-2.9-4.6c-0.7-1.8-1-3.7-1-5.8
					c0-2,0.3-3.9,1-5.6s1.7-3.2,2.9-4.5c1.2-1.3,2.7-2.3,4.3-3c1.7-0.7,3.4-1.1,5.4-1.1s3.9,0.3,5.5,1c1.7,0.7,3.1,1.7,4.3,3
					c1.2,1.3,2.1,2.8,2.7,4.6c0.6,1.8,1,3.8,1,6v1.8h-18.7c0.3,1.7,1,2.9,1.9,3.8c0.9,0.9,2.1,1.3,3.6,1.3c1.1,0,2-0.2,2.9-0.7
					c0.8-0.4,1.6-1.1,2.2-2l7.6,2c-0.6,1.6-1.6,2.9-2.9,4s-2.7,2-4.4,2.6C308.9,45.8,307.1,46.1,305.2,46.1z M304.9,23.8
					c-1.4,0-2.5,0.4-3.4,1.3s-1.5,2.1-1.8,3.7h10.1c-0.3-1.6-0.8-2.8-1.7-3.7C307.3,24.2,306.3,23.8,304.9,23.8z"/>
				<path class="st7" d="M320.5,45.4l14.3-36h9.4l14.3,36h-9.1l-2.5-7H332l-2.5,7H320.5z M334.6,31h9.5l-4.8-13.1L334.6,31z"/>
				<path class="st7" d="M362.1,45.4v-36h8.6L381,28.6l10.3-19.2h8.4v36h-8.5V24.3l-7.3,13.6h-6.1l-7.2-13.6v21.1H362.1z"/>
				<path class="st7" d="M405.9,45.4v-36h8.8v13.5h14.4V9.4h8.8v36h-8.8V30.7h-14.4v14.7H405.9z"/>
			</g>
		</g>
	</g>
</g>
</svg>
