<?xml version="1.0" encoding="utf-8"?>
<!-- Generator: Adobe Illustrator 25.1.0, SVG Export Plug-In . SVG Version: 6.00 Build 0)  -->
<svg version="1.1" id="Layer_1" xmlns="http://www.w3.org/2000/svg" xmlns:xlink="http://www.w3.org/1999/xlink" x="0px" y="0px"
	 viewBox="0 0 437.9 56.4" style="enable-background:new 0 0 437.9 56.4;" xml:space="preserve">
<style type="text/css">
	.st0{fill:#322F7F;}
	.st1{fill:#DE1D1B;}
	.st2{fill:#FFFFFF;}
	.st3{fill:#FCE600;}
</style>
<g>
	<g>
		<rect x="10.1" y="6.6" class="st0" width="2.6" height="2.5"/>
		<rect x="5" y="6.6" class="st0" width="2.5" height="2.5"/>
		<rect x="15.3" y="6.6" class="st0" width="2.6" height="2.5"/>
		<rect x="12.7" y="9.2" class="st0" width="2.6" height="2.6"/>
		<rect x="20.5" y="6.6" class="st0" width="2.6" height="2.5"/>
		<rect x="17.9" y="9.2" class="st0" width="2.6" height="2.6"/>
		<rect x="23.1" y="9.2" class="st0" width="2.6" height="2.6"/>
		<polygon class="st0" points="28.2,11.7 30.8,11.7 30.8,14.3 33.3,14.3 31.9,11.7 30.5,9.2 30.3,9.2 28.8,6.6 25.6,6.6 25.6,9.2 
			28.2,9.2 		"/>
		<rect x="20.5" y="11.7" class="st0" width="2.6" height="2.6"/>
		<rect x="23.1" y="14.3" class="st0" width="2.6" height="2.6"/>
		<rect x="20.5" y="16.9" class="st0" width="2.6" height="2.6"/>
		<path class="st0" d="M28.2,16.9h2.6v-2.6h-2.6V16.9z M28.2,11.7h-2.6v2.6h2.6V11.7z"/>
		<rect x="25.6" y="16.9" class="st0" width="2.6" height="2.6"/>
		<rect x="15.3" y="16.9" class="st0" width="2.6" height="2.6"/>
		<rect x="23.1" y="19.5" class="st0" width="2.6" height="2.6"/>
		<rect x="28.2" y="19.5" class="st0" width="2.6" height="2.6"/>
		<rect x="17.9" y="19.5" class="st0" width="2.6" height="2.6"/>
		<rect x="25.6" y="22" class="st0" width="2.6" height="2.6"/>
		<polygon class="st0" points="30.8,24.6 28.2,24.6 28.2,27.2 25.6,27.2 25.6,29.8 28.2,29.8 28.2,32.4 30.8,32.4 30.8,29.8 
			28.2,29.8 28.2,27.2 30.8,27.2 30.8,24.6 33.3,24.6 33.3,22 30.8,22 		"/>
		<rect x="23.1" y="24.6" class="st0" width="2.6" height="2.6"/>
		<rect x="20.5" y="27.2" class="st0" width="2.6" height="2.6"/>
		<rect x="23.1" y="29.8" class="st0" width="2.6" height="2.5"/>
		<rect x="25.6" y="32.4" class="st0" width="2.6" height="2.6"/>
		<polygon class="st0" points="43.4,32.4 41.9,29.8 40.5,27.2 39.1,24.6 37.6,22 36.2,19.5 34.8,16.9 33.3,14.3 33.3,16.9 
			30.8,16.9 30.8,19.5 33.3,19.5 33.3,22 35.9,22 35.9,24.6 33.3,24.6 33.3,27.2 30.8,27.2 30.8,29.8 33.3,29.8 33.3,32.4 
			30.8,32.4 30.8,35 33.3,35 33.3,37.5 30.8,37.5 30.8,40.1 33.3,40.1 33.3,42.7 30.8,42.7 30.8,45.3 28.2,45.3 28.2,47.8 
			30.8,47.8 30.8,50.4 28.2,50.4 28.2,53 30.1,56.4 32.4,53 34.1,50.4 35.9,47.8 37.7,45.3 39.5,42.7 41.3,40.1 43.1,37.5 44.8,35 
					"/>
		<rect x="23.1" y="35" class="st0" width="2.6" height="2.6"/>
		<rect x="28.2" y="35" class="st0" width="2.6" height="2.6"/>
		<rect x="23.1" y="40.1" class="st0" width="2.6" height="2.6"/>
		<rect x="25.6" y="37.5" class="st0" width="2.6" height="2.5"/>
		<rect x="28.2" y="40.1" class="st0" width="2.6" height="2.6"/>
		<path class="st1" d="M58.5,8.1l1.4-2H68c0.7,0,0.9,0.9,0,1.4c-5.5,2.7-8.9,6.7-10.9,9.5L45.7,33.6l-2.3-4.1l12.3-17.7v-1L54.8,11
			l-12,17.4l-2.3-4.1l8.6-12.5v-1L48.2,11l-8.3,12.1L37.6,19l6.7-9.8c1.1-1.5,2.9-2.6,4.7-2.6c2.2,0,2.9,1.5,2.9,1.5
			c1.1-1,2.4-1.5,3.7-1.5C57.9,6.6,58.5,8.1,58.5,8.1"/>
		<rect x="33.3" y="22" class="st2" width="2.6" height="2.6"/>
		<rect x="25.6" y="29.8" class="st2" width="2.6" height="2.5"/>
		<rect x="30.8" y="29.8" class="st2" width="2.6" height="2.5"/>
		<rect x="28.2" y="32.4" class="st2" width="2.6" height="2.6"/>
		<rect x="30.8" y="35" class="st2" width="2.6" height="2.6"/>
		<rect x="30.8" y="40.1" class="st2" width="2.6" height="2.6"/>
		<rect x="23.1" y="11.7" class="st2" width="2.6" height="2.6"/>
		<rect x="25.6" y="9.2" class="st2" width="2.6" height="2.6"/>
		<rect x="28.2" y="11.7" class="st2" width="2.6" height="2.6"/>
		<rect x="20.5" y="9.2" class="st3" width="2.6" height="2.6"/>
		<rect x="23.1" y="16.9" class="st3" width="2.6" height="2.6"/>
		<rect x="25.6" y="14.3" class="st3" width="2.6" height="2.6"/>
		<rect x="28.2" y="16.9" class="st3" width="2.6" height="2.6"/>
		<rect x="30.8" y="19.5" class="st3" width="2.6" height="2.6"/>
		<rect x="28.2" y="22" class="st3" width="2.6" height="2.6"/>
		<rect x="25.6" y="24.6" class="st3" width="2.6" height="2.6"/>
		<rect x="30.8" y="24.6" class="st3" width="2.6" height="2.6"/>
		<rect x="23.1" y="27.2" class="st3" width="2.6" height="2.6"/>
		<rect x="28.2" y="27.2" class="st3" width="2.6" height="2.6"/>
		<rect x="25.6" y="35" class="st3" width="2.6" height="2.6"/>
		<rect x="28.2" y="37.5" class="st3" width="2.6" height="2.5"/>
	</g>
	<g>
		<path class="st0" d="M110,46.1c-2.3,0-4.3-0.4-6.2-1.2c-1.9-0.8-3.5-1.9-4.8-3.4s-2.2-3.2-2.6-5.3l8.2-1.6c0.4,1.3,1.1,2.3,2.1,3
			c0.9,0.7,2.1,1,3.4,1c1.4,0,2.5-0.3,3.3-1c0.9-0.7,1.3-1.5,1.3-2.6c0-0.9-0.4-1.7-1.2-2.3c-0.8-0.6-2.2-1.1-4.2-1.6l-1.4-0.3
			c-3.7-0.8-6.3-2.1-8.1-4c-1.7-1.9-2.6-4.1-2.6-6.7c0-1.7,0.3-3.2,1-4.6s1.6-2.6,2.7-3.7c1.2-1,2.5-1.8,4.1-2.4s3.3-0.9,5.1-0.9
			c2.2,0,4.1,0.4,5.9,1.2s3.2,1.9,4.4,3.3c1.2,1.4,2,3.2,2.4,5.1l-8,1.6c-0.4-1.3-1.1-2.2-1.9-2.8c-0.8-0.6-1.8-0.9-2.9-0.9
			c-1.2,0-2.2,0.3-2.9,0.9c-0.8,0.6-1.2,1.4-1.2,2.4c0,0.7,0.2,1.3,0.7,1.8s1.1,0.8,1.9,1.1c0.8,0.3,1.7,0.6,2.7,0.8l1.3,0.3
			c3.7,0.8,6.4,2.2,8.2,4c1.8,1.8,2.7,4.1,2.7,6.8c0,1.8-0.3,3.4-1,4.8c-0.7,1.5-1.6,2.7-2.8,3.8s-2.6,1.9-4.3,2.5
			C113.8,45.8,112,46.1,110,46.1z"/>
		<path class="st0" d="M127.9,45.4v-36h8.8v36H127.9z"/>
		<path class="st0" d="M154.4,46.1c-2.3,0-4.3-0.4-6.2-1.2s-3.5-1.9-4.8-3.4s-2.2-3.2-2.6-5.3l8.2-1.6c0.4,1.3,1.1,2.3,2.1,3
			c0.9,0.7,2.1,1,3.4,1c1.4,0,2.5-0.3,3.3-1c0.9-0.7,1.3-1.5,1.3-2.6c0-0.9-0.4-1.7-1.2-2.3s-2.2-1.1-4.2-1.6l-1.4-0.3
			c-3.7-0.8-6.3-2.1-8.1-4c-1.7-1.9-2.6-4.1-2.6-6.7c0-1.7,0.3-3.2,1-4.6s1.6-2.6,2.7-3.7c1.2-1,2.5-1.8,4.1-2.4s3.3-0.9,5.1-0.9
			c2.2,0,4.1,0.4,5.9,1.2c1.8,0.8,3.2,1.9,4.4,3.3s2,3.2,2.4,5.1l-8,1.6c-0.4-1.3-1.1-2.2-1.9-2.8c-0.8-0.6-1.8-0.9-2.9-0.9
			c-1.2,0-2.2,0.3-2.9,0.9c-0.8,0.6-1.2,1.4-1.2,2.4c0,0.7,0.2,1.3,0.7,1.8s1.1,0.8,1.9,1.1c0.8,0.3,1.7,0.6,2.7,0.8l1.3,0.3
			c3.7,0.8,6.4,2.2,8.2,4s2.7,4.1,2.7,6.8c0,1.8-0.3,3.4-1,4.8c-0.7,1.5-1.6,2.7-2.8,3.8s-2.6,1.9-4.3,2.5
			C158.2,45.8,156.4,46.1,154.4,46.1z"/>
		<path class="st0" d="M180.4,45.4V17.2h-9.8V9.4h28.5v7.8h-9.8v28.2H180.4z"/>
		<path class="st0" d="M204.1,45.4v-36h23.3v7.4h-14.7v6.6h12.9v7.4h-12.9v7.4h15.2v7.4h-23.8V45.4z"/>
		<path class="st0" d="M233.4,45.4v-36h8.6l10.3,19.2l10.3-19.2h8.4v36h-8.5V24.3l-7.3,13.6h-6.1l-7.3-13.6v21.1H233.4z"/>
		<path class="st3" d="M300.2,46.1c-2,0-3.9-0.3-5.6-1s-3.2-1.7-4.4-3c-1.3-1.3-2.2-2.8-2.9-4.6c-0.7-1.8-1-3.7-1-5.8
			c0-2,0.3-3.9,1-5.6s1.7-3.2,2.9-4.5c1.2-1.3,2.7-2.3,4.3-3c1.7-0.7,3.4-1.1,5.4-1.1s3.9,0.3,5.5,1c1.7,0.7,3.1,1.7,4.3,3
			c1.2,1.3,2.1,2.8,2.7,4.6c0.6,1.8,1,3.8,1,6v1.8h-18.7c0.3,1.7,1,2.9,1.9,3.8c0.9,0.9,2.1,1.3,3.6,1.3c1.1,0,2-0.2,2.9-0.7
			c0.8-0.4,1.6-1.1,2.2-2l7.6,2c-0.6,1.6-1.6,2.9-2.9,4s-2.7,2-4.4,2.6C303.9,45.8,302.1,46.1,300.2,46.1z M299.9,23.8
			c-1.4,0-2.5,0.4-3.4,1.3s-1.5,2.1-1.8,3.7h10.1c-0.3-1.6-0.8-2.8-1.7-3.7C302.3,24.2,301.3,23.8,299.9,23.8z"/>
		<path class="st1" d="M315.5,45.4l14.3-36h9.4l14.3,36h-9.1l-2.5-7H327l-2.5,7H315.5z M329.6,31h9.5l-4.8-13.1L329.6,31z"/>
		<path class="st1" d="M357.1,45.4v-36h8.6L376,28.6l10.3-19.2h8.4v36h-8.5V24.3l-7.3,13.6h-6.1l-7.2-13.6v21.1H357.1z"/>
		<path class="st1" d="M400.9,45.4v-36h8.8v13.5h14.4V9.4h8.8v36h-8.8V30.7h-14.4v14.7H400.9z"/>
	</g>
</g>
</svg>
