<?xml version="1.0" encoding="utf-8"?>
<!-- Generator: Adobe Illustrator 26.3.1, SVG Export Plug-In . SVG Version: 6.00 Build 0)  -->
<svg version="1.1" id="Layer_1" xmlns="http://www.w3.org/2000/svg" xmlns:xlink="http://www.w3.org/1999/xlink" x="0px" y="0px"
	 viewBox="0 0 233.9 73.8" style="enable-background:new 0 0 233.9 73.8;" xml:space="preserve">
<style type="text/css">
	.st0{fill:#F84115;}
	.st1{fill:#3A38BE;}
	.st2{fill:#F84216;}
	.st3{fill:#F74318;}
	.st4{fill:#F7431A;}
</style>
<g>
	<g id="euiEsW_00000145779425798993918840000007196965969131336875_">
		<g>
			<path class="st0" d="M233.9,0.4c-2.1,5.3-4.1,10.5-6.1,15.7c-6.3,16.1-12.5,32.2-18.7,48.3c-0.6,1.6-1.3,2.2-3.1,2.2
				c-15-0.1-29.9-0.1-44.9,0c-1.7,0-2.3-0.3-1.6-2.1c8-20.8,15.9-41.6,23.8-62.4c0.4-1.1,0.9-1.9,2.3-1.9c15.7,0.1,31.4,0,47,0
				C233.1,0.2,233.4,0.3,233.9,0.4z"/>
			<path class="st1" d="M73.6,55.5c0-2.1,0-4.2,0-6.3c0.1-2.1,1.2-2.8,3.2-2.6c2,0.2,4,0.1,6,0c1.5-0.1,2,0.5,1.7,1.9
				c-0.2,1.1-0.2,2.2-0.1,3.3c0.2,2.3,1.5,3.6,3.4,4.6c4.1,2,10.4,0.9,13.7-2.2c3.1-3,2.6-6.8-1.2-8.8c-3.4-1.7-6.9-3.3-10.3-5.1
				c-7.4-4-9.1-11.3-4.5-18.4c5.7-8.7,19.4-12.4,28.6-7.8c4.7,2.3,6.6,6,5.9,11.2c-0.6,4.4-0.6,4.4-5.1,4.4c-0.4,0-0.8,0-1.2,0
				c-3.9-0.1-3.9-0.1-4-3.8c-0.1-2.4-1.4-3.9-4-4.4c-2.4-0.4-4.8-0.4-7.2,0c-1.5,0.2-2.8,1.1-3.8,2.3c-2,2.7-1.3,5.8,1.8,7.1
				c2.9,1.3,5.9,2.4,8.8,3.7c10,4.7,10.7,12.4,5.6,21c-6.9,11.6-20.3,12.5-29.1,9.1C77.8,63.2,74.5,60.4,73.6,55.5z"/>
			<path class="st2" d="M158.2,43c2-1.3,3.5-3.3,5.7-4.3c-1.5,6.2-4.4,11.8-6.5,17.8c-1,2.9-2.2,5.6-3.2,8.5c-0.4,1.1-1,1.6-2.2,1.6
				c-2,0.1-2.3-0.5-1.6-2.3c2.6-6.7,5.1-13.4,7.6-20.1C158,43.8,158.1,43.4,158.2,43z"/>
			<path class="st2" d="M170.1,23.1c-0.5-2.1-0.8-4.2-1.9-6.1c1.7-4.5,3.5-9.1,5.2-13.6c1.4-3.7,1.4-3.6,5.8-3
				C176.2,8.1,173.2,15.6,170.1,23.1z"/>
			<path class="st3" d="M147,46.4c1.4-0.6,2.9-0.6,4.4-0.6c-2.5,6.6-5,13.2-7.6,19.8c-0.7,1.8-2.4,1.1-3.5,0.8
				c-1.2-0.3-0.2-1.5,0-2.2C142.5,58.3,144.8,52.3,147,46.4z"/>
			<path class="st3" d="M163.8,14.1c-1.4-0.2-2.8-0.5-4.2-0.7c1.5-3.8,3-7.7,4.5-11.5c0.6-1.4,3.3-2.3,4.5-1.6
				c0.8,0.5,0.2,1,0.1,1.4C167.1,5.8,165.4,10,163.8,14.1z"/>
			<path class="st1" d="M195.5,13.7c3.5,0,7,0,10.6,0c7.7,0,11.9,5.2,10.6,12.8c-2,11.3-12.1,19.8-23.7,19.9
				c-3.4,0-6.7,0.2-10.1-0.1c-2.1-0.1-3,0.7-3.6,2.5c-1.9,5.1-3.9,10.1-5.8,15.2c-0.5,1.3-1.2,1.8-2.6,1.8c-2.5-0.1-5-0.1-7.4,0
				c-1.5,0-1.7-0.4-1.2-1.8c4.6-12,9.2-24,13.8-36c1.6-4.1,3.2-8.2,4.7-12.3c0.5-1.5,1.3-2.1,3-2.1c3.9,0.1,7.8,0,11.8,0
				C195.5,13.6,195.5,13.6,195.5,13.7z"/>
			<path class="st1" d="M168.2,17.1c-1.4-1.1-2.7-2.3-4.4-3c-1.2-1.3-2.7-1.1-4.2-0.7c-6.4,0-12.8,0-19.2-0.1
				c-5.5-0.1-5.5-0.2-7.5,5c-5.8,15.1-11.6,30.2-17.5,45.3c-0.8,2-0.2,2.3,1.6,2.2c2.2-0.1,4.5-0.1,6.7,0c1.6,0.1,2.2-0.5,2.8-1.9
				c2-5.3,4.1-10.6,6.1-15.8c0.4-1,0.8-1.8,2.1-1.7c4.1,0.1,8.1,0.1,12.2,0.1c1.5,0.4,3,0.6,4.4-0.6c2.3-0.9,4.5-1.8,6.8-2.8
				c2.6-0.5,4-2.6,5.7-4.3c3.4-4.6,6-9.6,6.3-15.5C170.3,20.9,170.4,18.6,168.2,17.1z M150.9,36.7c-4.3,1-8.6,0.2-12.8,0.2
				c-0.9,0-1.1-0.4-0.8-1.2c1.6-4.1,3.1-8.2,4.7-12.2c0.2-0.5,0.5-1,1.2-1c4.2,0.2,8.6-0.7,12.7,0.9C154.9,28,153.4,32.6,150.9,36.7
				z"/>
			<path class="st4" d="M150.9,36.7c1.7-4.5,3.3-8.9,5-13.4c1.7,0.4,2.5,1.7,2.5,3.3C158.6,31.1,155.2,35.6,150.9,36.7z"/>
			<path class="st0" d="M190.3,37.2c-0.8,0-1.6,0-2.4,0c-4.3-0.1-4.3-0.1-2.8-4.1c1.1-3,2.3-5.9,3.4-8.9c0.5-1.3,1.1-1.8,2.6-1.8
				c3.7,0,7.3,0,11,0.7c2.3,0.5,3.1,1.9,3.1,4.1c0,5.5-4.4,9.9-10.1,10.1C193.5,37.4,191.9,37.3,190.3,37.2
				C190.3,37.3,190.3,37.3,190.3,37.2z"/>
		</g>
	</g>
	<path class="st1" d="M5.9,42c2-7.9,2.3-9.4,2.6-10.7h10.5c-0.1,0.8-0.2,1.7-0.4,2.3c2.1-1.9,4.5-2.8,7.3-2.8c4.1,0,5.1,1.7,5.6,2.9
		c2-1.7,4.4-2.9,8-2.9c6,0,6.9,4.2,5.8,8.5l-6.1,24.3H28.5l5.8-23.1c0.3-1.3,0.1-2.2-1-2.2c-1.1,0-1.8,0.6-2.2,2.3l-5.8,22.9H14.4
		l5.8-23.2c0.4-1.6-0.1-2-1-2c-1,0-1.7,0.7-2.1,2.2l-5.8,23H0.5L5.9,42z M60.9,31.3c-0.8,6.5-2.4,18.1-3.2,22.6h0.6
		c1.4-4.7,4.3-14.2,7-22.6H77L62.6,63.6c-3,6.5-5.5,10.2-15.7,10.2c-2.2,0-3.8-0.1-5.1-0.3l1.9-7.7c0.8,0.1,1.3,0.1,1.9,0.1
		c1.9,0,3-0.4,3.3-1.2l0.2-33.4H60.9z"/>
</g>
</svg>
